# xmcd
#
# Track frame offsets:
#	150
#	17065
#	35822
#	55858
#	74045
#	89788
#	106772
#	126780
#	138101
#	154861
#	173231
#	195786
#	213978
#	233075
#
# Disc length: 3333 seconds
#
# Revision: 1
# Processed by: cddbd v1.5.1PL2 Copyright (c) Steve Scherf et al.
# Submitted via: audiograbber 1.83.01
#
DISCID=c00d030e
DTITLE=Various Artist - SBG009
DYEAR=1900
DGENRE=other
TTITLE0=R. Kelly - Fiesta
TTITLE1=Afroman - Because I Got High
TTITLE2=O-Town - We Fit Together
TTITLE3=Garbage - World Is Not Enogh
TTITLE4=Enrique Iglesias - Rhythm Divine
TTITLE5=Britney Spears - Stonger
TTITLE6=Christina Aguilera - I Turn To You
TTITLE7=Blink 182 - what's My Age Again 
TTITLE8=N'sync - Bye, Bye, Bye
TTITLE9=Westlife - Swear It Again
TTITLE10=Destiny's Child - Say My Name
TTITLE11=Britney Spears - Baby One More Time
TTITLE12=Faith Hill - Breathe
TTITLE13=Dido - Thank You
EXTD=
EXTT0=
EXTT1=
EXTT2=
EXTT3=
EXTT4=
EXTT5=
EXTT6=
EXTT7=
EXTT8=
EXTT9=
EXTT10=
EXTT11=
EXTT12=
EXTT13=
PLAYORDER=
